<?xml version="1.0"?><svg width="539" height="130" xmlns="http://www.w3.org/2000/svg">
 <title>Music Staff</title>
 <g>
  <title>Layer 1</title>
  <g transform="matrix(3.00922 0 0 1 -256.89 -327.433)" id="g846">
   <path fill="none" fill-opacity="0.75" fill-rule="evenodd" stroke="#000000" stroke-width="5.28575" id="path838" d="m85.367645,339.434662l0,89.063995"/>
   <path fill="none" fill-opacity="0.75" fill-rule="evenodd" stroke="#000000" stroke-width="1.0000000pt" id="path839" d="m85.367645,340.149658l177.066895,0.720001"/>
   <path fill="none" fill-opacity="0.75" fill-rule="evenodd" stroke="#000000" stroke-width="1.0000000pt" id="path840" d="m86.807251,362.102661l177.066284,0.720001"/>
   <path fill="none" fill-opacity="0.75" fill-rule="evenodd" stroke="#000000" stroke-width="1.0000000pt" id="path842" d="m87.527046,383.876648l177.06649,0.718994"/>
   <path fill="none" fill-opacity="0.75" fill-rule="evenodd" stroke="#000000" stroke-width="1.0000000pt" id="path844" d="m85.727547,406.09964l177.066978,0.720001"/>
   <path fill="none" fill-opacity="0.75" fill-rule="evenodd" stroke="#000000" stroke-width="1.0000000pt" id="path845" d="m86.44735,427.87265l177.067177,0.720001"/>
  </g>
  <g transform="matrix(0.907005 0 0 0.886818 -219.19 1.14968)" id="g1981">
   <path fill="#000000" stroke="#000000" id="path1204" d="m272.8367,137.435272c0.021912,8.470001 18.815918,7.393997 18.753418,-6.572998c0.02478,-13.606995 -17.95462,-89.745483 -18.155304,-104.306391c-0.211395,-11.556797 6.122284,-24.509529 11.548401,-24.368599c4.298584,0.141 8.337585,9.8729 8.315399,21.986399c0.326385,39.172806 -33.980804,36.640701 -33.980804,63.408791c0,17.301804 14.363403,21.871811 21.545105,21.871811c24.319794,-0.163002 20.239197,-29.379791 4.733276,-29.379791c-9.140289,-0.326614 -17.138092,12.078186 -5.059784,22.360786c-20.402496,-8.976799 -9.466705,-30.685005 6.691986,-30.848305c21.545105,0.163101 25.299225,39.662308 -6.365479,39.82531c-18.933594,0.163994 -26.931381,-16.484901 -26.768204,-29.542503c0,-25.135891 37.05101,-39.662491 36.561386,-60.881098c0,-13.384 -13.873779,-7.344898 -14.200195,14.200205c0.326508,13.384102 17.627808,84.058395 17.4646,94.994385c0,22.523987 -28.889984,15.179001 -28.889984,3.753998c0.163177,-16.321991 16.974884,-4.734009 11.751892,-4.244003c-4.080597,7.181992 -3.945709,7.742004 -3.945709,7.742004z"/>
   <path fill="#000000" stroke="#000000" id="path1205" d="m280.664215,130.339279c0,3.788986 -3.160095,6.86499 -7.053406,6.86499c-3.893311,0 -7.053497,-3.076004 -7.053497,-6.86499c0,-3.790009 3.160187,-6.865997 7.053497,-6.865997c3.893311,0 7.053406,3.075989 7.053406,6.865997z"/>
   <path fill="#000000" id="path1206" d="m288.325806,107.929283l2.3125,0l0,2.249992l-2.3125,0l0,-2.249992z"/>
   <path fill="#000000" id="path1207" d="m281.575806,72.617279l2.9375,0l0,7.3125l-2.9375,0l0,-7.3125z"/>
   <path fill="#000000" id="path1208" d="m276.36792,45.45649l1.393005,-0.240501l1.960266,12.937103l-1.392975,0.240498l-1.960297,-12.937099z"/>
  </g>
 </g>
</svg>